<svg xmlns="http://www.w3.org/2000/svg" xmlns:xlink="http://www.w3.org/1999/xlink" viewBox="0 0 595.28 595.28"><defs><style>.a{fill:none;}.b{clip-path:url(#a);}.c{fill:#fbfdfc;}.d{opacity:0.49;}.e{fill:#cec9c5;}.f{fill:#211535;}.g{fill:#e84525;}.h{fill:#0a0711;}.i{fill:#f3bc36;}</style><clipPath id="a"><rect class="a" x="-8.73" y="50.37" width="612.73" height="859.12" transform="translate(595.28 959.86) rotate(180)"/></clipPath></defs><g class="b"><circle class="c" cx="296.77" cy="297.64" r="203.21" transform="translate(-123.54 297.02) rotate(-45)"/><g class="d"><path class="e" d="M423.55,218.13c-10.22,3-11.71,17.2-10.12,25.92,2.21,12.08,15.19,16.76,14.3,29.3-.81,11.48.61,21.07,12.64,25.46,11.82,4.32,24.92-.45,29.66-12.49,4.29-10.88-1.47-23.19-2.85-34.16-.81-6.51-3-11.56-6.93-14.8a22.69,22.69,0,0,0-6.32-8.51c-5.12-4.23-11.58-4.71-17.41-7.39C432.21,219.48,428.65,216.65,423.55,218.13Z"/><path class="e" d="M338.26,137.55c-20.64,6.07-29.27,36.86-29.05,55.69.12,10.45,3.62,20.91,12.93,26.58s24.62,11.64,35.19,6c11-5.84,18.15-19.13,15.91-31.29-1.19-6.5-.8-14.28-3.56-20.27a15.56,15.56,0,0,0-3.63-4.32,43.18,43.18,0,0,0-2.64-17.4C359.33,141.91,350.08,134.07,338.26,137.55Z"/><path class="e" d="M363.89,273.84c-14.1,1.55-20,22.34-16.92,34.21,3.53,13.57,19.53,26.45,33.29,18.1a19.53,19.53,0,0,0,9.48-17.4c-.16-3.89-1.77-7.19-2.88-10.84-.07-.23-.12-.48-.19-.71a26.86,26.86,0,0,0-1.2-6.91c-.24-2.23-.43-4.46-.76-6.67-.77-5-4.79-7.08-8.41-6.51A17.79,17.79,0,0,0,363.89,273.84Z"/><path class="e" d="M233.7,139.63c-12.06,2.59-20.75,14-24.68,25.06-4.4,12.34,1,22.8,10.15,31.43,10.76,10.14,20.34,4.91,32.23.36,10.15-3.88,18.45-8.07,22.46-19,3.47-9.45-3.57-17.25-10.12-23.39a41.12,41.12,0,0,0-4-3.32C254,143.43,240.47,138.17,233.7,139.63Z"/><path class="e" d="M377,382.64c-2,10.1-9.27,24.78-1.06,33.82,5.94,6.53,15,4.68,22.73,3.6,10.73-1.5,17.65-4.7,23.14-14.44a65.64,65.64,0,0,0,7-19.19c1.33-6.74.72-13.35,3.89-19.62a8.91,8.91,0,0,0,1-5c1.72-10.59-2.41-20.81-16.36-21.75C394,338.5,381,362.74,377,382.64Z"/></g><path class="f" d="M343.19,393c.23,0,.46,0,.69,0l-1.2,1A2,2,0,0,0,343.19,393Z"/><path class="g" d="M234.35,283.75c2.79,9.18,15.08,7.77,21.86,4.67,5.09-2.32,10.39-5,14.69-8.59,2.52-2.1,5-4.31,7.5-6.36,2.11-1.7,4.93-4.79,7.57-5.27,1.32-.24,1-2.3-.28-2.05l-.23.05c-5.07-1-9.46,3.24-14.18,4.66-3.71,1.12-7.78.63-11.6,1.33.08-3.58-1.14-7.44-1.29-10.88a86.37,86.37,0,0,0-2.68-18.77c-2.74-10.65-7.26-20.69-15.93-27.83-.11-.09-.23.06-.16.16s.3.43.44.65a.38.38,0,0,0-.05.14c-.29,2,1,4.05,1.45,6a46.47,46.47,0,0,1,1.21,12.21c-.26,6.78-1.3,13.63-1.74,20.43a22.15,22.15,0,0,1-3,10.76,30.56,30.56,0,0,0-2.85,5.83C233.76,274.78,233.15,279.79,234.35,283.75Z"/><path class="h" d="M-71.13,853.52c-9.5-33.62-13.13-68.06-14.35-102.91-.69-19.75.48-39.31,5.34-58.53.37-1.42.76-2.84,1.15-4.26a204.31,204.31,0,0,0,11-17.7c.74-1.28,1.63-2.64,2.58-4,1-10.18,2.08-20.38,2-30.53-.22-29,9.69-60.84,20.18-87.6,10.84-27.61,26.41-49.12,48.3-69.1,10.43-9.51,20.79-12.74,34.15-16.71,4-1.2,8.07-2.36,12.09-3.6-4-6.75-6.59-14.68-8.8-21.46a1.05,1.05,0,0,1,.31-1.21,1.74,1.74,0,0,1,.18-.11s0-.06.08-.08C53,428.88,62.19,421.48,69.8,412.1c4-5,7.82-13.41,13.75-17A101.51,101.51,0,0,1,69.93,389c-3.5-1.86-6.93-3.82-10.41-5.72-2.1-1.15-5.15-2.3-6.94-4-2.35-2.18-1.1-4.61,1.21-6.42A198.93,198.93,0,0,1,71,361.33a54.71,54.71,0,0,1,8.7-3.89A53.7,53.7,0,0,0,90.55,351a86.11,86.11,0,0,1,7.34-4.77c.91-.53,1.86-1.15,2.83-1.78,2.13-4,3.88-8.33,6.74-11.95a34.85,34.85,0,0,1,8.77-7.79,27.31,27.31,0,0,1,5.38-2.62l.31-.11a55.61,55.61,0,0,1,5.15-12.74c2.82-4.72,6.6-8.84,9.88-13.23a72.57,72.57,0,0,1,10.37-11.29,52.8,52.8,0,0,1,12.8-8.62c4.6-2.1,9.73-2.44,14.68-3.08,2.94-.38,5.77-.58,8.51-1.84,3.74-1.74,4.92-3.8,7.06-7.24a29.36,29.36,0,0,1,2-3.09c.93-2.67,1.79-5.35,2.78-8,.78-2.89,1.66-5.75,2.69-8.59a41.88,41.88,0,0,1,4.9-10,10.49,10.49,0,0,1,3.37-3c.62-.35,1.69-.92,2.8-1.43,1.36-1.89,2.72-3.73,4.16-5.54.53-1.38,1-2.8,1.54-4.22a39.64,39.64,0,0,1,5.24-9.06c2.4-3.33,3.92-6.37,7.67-6.18a7.81,7.81,0,0,1,1.92-.41c2.25-.34,3.36,1.61,4.84,3,2.92,2.76,5.62,4.47,7.73,8,3.08,5.21,5.24,12,4.7,18.1-.46,5.28-2.05,9.89-1.32,15.29.63,4.65.92,8.55-.3,13.2s-3,9.07-4.13,13.73a35.71,35.71,0,0,0-.8,4.32,8.8,8.8,0,0,0,4.4,1.9c2.84.3,5.4-.4,8-1a62.31,62.31,0,0,1,7.57-4.9c3.42-1.76,7.29-1.73,11.08-1.65,2.11-1.83,4.12-3.77,6.27-5.67a12.86,12.86,0,0,1,3.43-2.3,8,8,0,0,1,1.36-.82c2.26-1.07,4.25-1.31,5.58.15a1.87,1.87,0,0,1,.79.58c2,1.65,1.47,6.62,1.63,8.65.45,6-.61,12.08-1.84,17.94-1.36,6.47-4.58,9.25-9.22,13.61-2,1.86-3.93,3.78-5.8,5.76a42.83,42.83,0,0,1-4.19,10.33,91.89,91.89,0,0,0-4.85,9.08c-1.75,4.28-1.92,9-2.32,13.52a162,162,0,0,0-.58,16.76c8.83,7.31,13.25,20.05,17.74,29.83,3.71,8.07,6,16.61,9.52,24.68,4.37,9.89,14.5,18.19,23.29,24.45,11.53,8.22,23.55,15.7,30.1,28.91,8,16.17,15.93,31.84,20.76,49.32,5.12,18.49,8.83,36.4,10.5,54.42,7.38,7.19,14,15.37,20.4,23.35C409,615.82,414,637.93,418.61,661.13c2.17,10.9,4.37,21.81,6.72,32.67,3.36,15.6,11.22,26,22.8,36.53,19.79,18,33.86,42,51.76,61.89,8.2,9.1,18.46,15.94,27.12,24.55,3.49,3.47,6.06,7.35,9,11.28,5.18,6.92,11.85,10.36,18.53,15.53,16.35,12.65,22.76,35.76,26.68,55.16,2.57,12.66,2.94,25.65,5.41,38.31,2,10.27,5.48,20.51,5.11,31.11-.51,14.85-10.51,23.7-23.73,28.52-15.91,5.8-33.78,6.39-50.53,6.48-21.67.12-43.36-.32-65-.62-29.42-.4-58.86-.81-88.27.4-29.73,1.22-59.14,5.27-88.77,7.71-57.6,4.76-115.33-5.52-172.26-13.08-30.1-4-60.22-6.63-90.6-5.51-14,.52-27.95,1.63-41.89,2.9C-37.32,946.65-57.81,900.65-71.13,853.52Z"/><path class="i" d="M173.26,296a3.64,3.64,0,0,0,.35-3.61.81.81,0,0,0-.34-.9c-3.53-2.11-9.92,1.27-14.22,4.46-3.19,2.36-7.61,8.94-7.29,12.76.14,1.65,1.16,2.26,2.71,1.77,1.83-.56,3.51-2.07,5.3-2.29,1.57-.19,2.89,0,4.58-.73C168.9,305.4,170.71,300.41,173.26,296Z"/></g></svg>